<svg xmlns="http://www.w3.org/2000/svg" width="101" height="100" viewBox="0 0 101 100" fill="none"><path d="M23.6935 67.0669C24.3853 67.0669 25.25 67.5815 26.1147 68.2676C26.9794 69.1252 27.6712 69.9829 28.1901 71.012C28.363 71.3551 28.5359 71.3551 28.8818 71.1835C30.6113 69.9828 32.1678 70.4974 33.5514 71.6981C35.2808 73.0703 36.1455 74.7856 36.1455 76.8439C36.1455 78.2161 35.6267 79.4168 34.2431 80.2744C31.9948 81.4751 29.9195 82.6758 27.6712 84.048C27.3253 84.2195 27.1524 84.2195 26.9794 83.8765C25.077 80.446 23.0017 77.0154 20.9264 73.5849C20.2346 72.2127 19.8887 70.8405 20.2346 69.2967C20.9264 67.753 21.964 67.0669 23.6935 67.0669Z" fill="#C6ADA3"></path><path d="M89.0668 37.7358L100.308 34.1338C100.654 33.9622 101 33.6192 101 33.2761C101 32.9331 100.654 32.59 100.308 32.59L70.9075 21.4408C70.7346 21.4408 70.5616 21.4408 70.3887 21.4408L56.3801 23.8422L41.8527 21.6123C42.0257 21.9554 42.0257 22.1269 42.0257 22.47C42.0257 22.813 42.0257 23.1561 41.8527 23.4991L56.2072 25.729C56.3801 25.729 56.3801 25.729 56.5531 25.729L70.5616 23.3276L97.3681 33.4477L87.3373 36.7067C86.9914 36.8782 86.8185 37.0497 86.8185 37.3928C86.8185 37.7358 86.8185 38.0789 86.9914 38.2504L98.5788 50.2573L58.9743 65.6947L46.8681 49.5712C46.6952 49.3996 46.3493 49.2281 46.1764 49.2281C45.8305 49.2281 45.6575 49.3996 45.4846 49.5712L35.1079 63.4648L4.32363 50.7718L15.5651 37.9073C15.738 37.7358 15.911 37.3928 15.738 37.0497C15.5651 36.7067 15.3921 36.5351 15.0462 36.5351L4.49657 34.3053L30.4384 26.2435C30.9572 26.072 31.1301 25.5574 30.9572 25.0429C30.7842 24.5283 30.2654 24.3567 29.7466 24.5283L0.691781 33.6192C0.172945 33.6192 0 33.9622 0 34.4768C0 34.8199 0.34589 35.1629 0.691781 35.3344L13.3168 38.0789L2.07534 50.7718C1.9024 50.7718 1.72945 51.1149 1.9024 51.4579C1.9024 51.801 2.24829 51.9725 2.42123 52.1441L34.762 65.1801C35.1079 65.3516 35.6267 65.1801 35.7997 64.837L45.8305 51.4579L57.7637 67.2384C57.9366 67.4099 58.2825 67.5815 58.4555 67.5815C58.6284 67.5815 58.6284 67.5815 58.8014 67.5815L100.308 51.4579C100.654 51.2864 100.827 51.1149 100.827 50.7718C100.827 50.4288 100.827 50.2573 100.654 49.9142L89.0668 37.7358Z" fill="#C6ADA3"></path><path d="M46.0034 100C45.8305 100 45.6575 100 45.4846 99.8285C45.3116 99.657 45.1387 99.3139 45.1387 99.1424V49.7428C45.1387 49.2282 45.4846 48.8851 46.0034 48.8851C46.5222 48.8851 46.8681 49.2282 46.8681 49.7428V97.7702L87.3373 84.5627V54.8886C87.3373 54.374 87.6832 54.0309 88.202 54.0309C88.7209 54.0309 89.0668 54.374 89.0668 54.8886V85.2488C89.0668 85.5918 88.8938 85.9349 88.375 86.1064L46.0034 99.8285C46.1763 100 46.1763 100 46.0034 100Z" fill="#C6ADA3"></path><path d="M46.0035 100C45.8305 100 45.8305 100 45.6576 100L13.4898 86.1064C13.1439 85.9349 12.9709 85.5918 12.9709 85.2488V55.5747C12.9709 55.0601 13.3168 54.717 13.8357 54.717C14.3545 54.717 14.7004 55.0601 14.7004 55.5747V84.5627L46.3494 98.2848C46.8682 98.4563 47.0411 98.9709 46.8682 99.4855C46.6953 99.8285 46.3494 100 46.0035 100Z" fill="#C6ADA3"></path><path d="M55.5154 24.6998V38.5935C55.6883 38.5935 55.6883 38.765 55.8613 38.765C56.3801 39.2796 56.726 39.7942 56.8989 40.4803C57.0719 40.6518 57.0719 40.8233 57.0719 40.9949H57.4178V24.6998H55.5154Z" fill="#C6ADA3"></path><path d="M56.553 23.6707L44.7927 27.2727C45.1386 27.6158 45.4845 27.7873 45.8304 28.3019C46.0034 28.4734 46.0034 28.6449 46.0034 28.8165L56.553 25.5574L84.916 37.2213L46.0034 48.8851L17.6404 37.5643L34.589 32.4185C34.0701 32.0755 33.8972 31.3893 33.7243 30.8748L12.2791 37.2213L45.8304 50.7719L90.1044 37.5643L56.553 23.6707Z" fill="#C6ADA3"></path><path d="M59.3202 43.9108C57.9367 40.1373 55.3425 36.8782 53.0942 34.3053C52.9213 34.1338 52.7483 33.7908 52.5754 33.6192C50.8459 31.5609 48.9435 30.0172 47.2141 28.645C46.5223 28.1304 46.0034 27.6158 45.3117 27.1012C42.8904 24.8714 42.1986 22.47 43.0634 19.3825C43.9281 16.1235 46.3493 13.3791 48.9435 12.1784C52.2295 10.8062 53.613 7.03262 52.0565 3.77361C50.673 0.514608 46.8682 -0.857605 43.5822 0.686134C37.5291 3.43056 32.6867 9.09094 30.6113 15.952C28.363 23.6707 30.6113 31.2179 36.6644 36.7067C37.3562 37.3928 38.048 37.9074 38.9127 38.5935C40.2963 39.7942 41.6798 40.8234 42.7175 42.024C42.8904 42.1956 43.0634 42.5386 43.2363 42.7102C44.7928 44.4254 46.5223 46.6553 47.0411 48.199C47.0411 48.3705 47.2141 48.5421 47.2141 48.7136L48.9435 48.199C48.9435 48.0275 48.7706 47.8559 48.7706 47.6844C48.5976 47.1698 48.2517 46.4837 47.9058 45.9692C49.1165 46.1407 51.8836 46.1407 52.5754 44.7685C53.2671 43.2247 54.4778 41.1664 54.9966 40.3088C56.0343 41.681 56.899 43.2247 57.4178 44.94C57.5908 45.2831 57.5908 45.4546 57.7637 45.7976L59.4932 45.2831C59.4932 44.4254 59.3202 44.2539 59.3202 43.9108ZM52.5754 37.2213C52.0565 37.3928 51.5377 37.9074 51.3647 38.2505C51.0189 38.765 50.5 39.1081 50.1541 39.2796C49.6353 39.4511 49.1165 39.6227 48.5976 40.1373C48.2517 40.4803 47.9058 40.9949 47.387 41.1664C46.8682 41.3379 45.8305 41.681 45.1387 42.024C44.9658 41.8525 44.7928 41.5095 44.4469 41.3379C44.274 41.1664 44.101 40.8234 43.9281 40.6518C42.8904 39.4511 41.5069 38.2505 39.9504 37.0498C39.2586 36.5352 38.5668 35.8491 37.875 35.3345C37.0103 34.6484 36.3185 33.9623 35.6267 33.1047C35.4538 31.7324 35.4538 30.1887 36.6644 29.3311C37.5291 28.645 38.3939 28.3019 38.3939 27.1012C38.3939 26.5867 38.7397 26.2436 38.9127 25.5575C39.0856 24.6999 38.2209 24.1853 37.5291 24.3568C37.1832 24.5283 36.6644 24.6999 36.4915 25.0429C36.1456 25.386 36.1456 25.729 35.9726 26.2436C35.7997 26.7582 35.2808 26.7582 34.935 26.7582C34.0702 26.5867 33.2055 27.2728 32.6867 27.7873C31.8219 25.5575 31.476 23.3276 31.649 20.9263C31.9949 20.2402 32.5137 19.3825 33.3784 19.3825C34.0702 19.5541 34.762 19.5541 35.6267 19.5541C36.3185 19.5541 37.0103 19.5541 37.5291 19.211C38.2209 18.868 38.9127 18.6964 39.6045 18.5249C39.7774 18.5249 39.9504 18.5249 40.1233 18.5249C40.8151 18.6964 41.5069 17.6673 40.988 17.1527C40.4692 16.6381 39.6045 16.2951 38.9127 16.2951C38.5668 16.2951 38.048 16.2951 37.7021 16.2951C37.1832 16.4666 36.6644 16.6381 35.9726 16.4666C35.4538 16.2951 34.9349 16.1235 34.5891 15.952C34.0702 15.7805 33.2055 15.2659 32.8596 14.7513C34.9349 9.26246 39.0856 4.63125 44.274 2.4014C44.9658 1.88682 45.6575 1.71529 46.3493 1.71529C48.0788 1.71529 49.8082 2.74445 50.673 4.45972C51.7106 6.68956 50.8459 9.26246 48.7706 10.2916C48.4247 9.77704 47.5599 8.91941 46.3493 8.74788C45.3117 8.74788 44.274 8.91941 43.4093 8.40483C42.8904 8.2333 42.7175 7.71873 42.1986 7.37567C41.6798 6.86109 41.161 6.51804 40.4692 6.34651C40.1233 6.17499 39.7774 6.17499 39.4315 6.51804C39.0856 6.68957 39.0856 7.20414 39.0856 7.5472C39.0856 8.06178 39.4315 8.2333 39.7774 8.40483C40.4692 8.91941 40.988 9.60552 41.161 10.2916C41.3339 10.9777 41.3339 11.3208 41.8528 11.8354C42.5445 12.3499 43.5822 12.8645 44.6199 13.036C43.2363 14.5798 42.0257 16.4666 41.5069 18.6964C40.988 20.5832 40.988 22.2985 41.3339 23.8422C41.6798 24.8714 42.1986 26.0721 43.0634 26.9297C42.5445 27.1012 42.1986 27.4443 41.8528 27.7873C41.5069 27.9589 41.161 28.3019 41.161 28.645C41.161 29.1596 41.5069 29.6741 42.0257 29.8457C42.3716 30.0172 42.5445 30.0172 42.8904 29.8457C43.2363 29.8457 43.4093 29.5026 43.7552 29.5026C44.101 29.5026 44.274 29.6741 44.6199 29.6741C44.9658 29.6741 45.1387 29.6741 45.4846 29.6741C45.6575 29.6741 46.0034 29.6741 46.3493 29.6741C47.0411 30.1887 47.7329 30.8748 48.4247 31.3894C47.2141 31.5609 45.3117 31.904 44.274 31.904C42.8904 31.904 41.161 32.9331 41.5069 33.9623C41.8528 34.9915 43.4093 34.8199 44.101 34.6484C44.7928 34.4769 45.6575 34.8199 46.3493 34.8199C47.2141 34.9915 48.2517 35.163 49.2894 35.163C49.6353 35.163 49.8082 34.9915 50.1541 35.163C50.3271 35.163 52.2295 35.3345 52.2295 35.163C52.5754 35.506 52.9212 36.0206 53.2671 36.3637C52.9212 37.0498 52.7483 37.2213 52.5754 37.2213Z" fill="#C6ADA3"></path></svg>